<svg t="1597217539826" class="icon" viewBox="0 0 1024 1024" version="1.1" xmlns="http://www.w3.org/2000/svg" p-id="4603" width="200" height="200"><path d="M896.96256 789.2992a50.63168 50.63168 0 0 0 32.39936-63.82592l-68.30592-210.51392a69.05856 69.05856 0 0 0-65.8688-47.86176h-109.92128c27.5968-49.152 46.49472-103.13216 46.49472-156.91264C731.76064 184.32 630.8608 81.92 506.83392 81.92S281.90208 184.32 281.90208 310.18496a332.70784 332.70784 0 0 0 41.82016 156.91264H223.6928a69.05344 69.05344 0 0 0-65.86368 47.86176l-68.31104 210.51392a50.63168 50.63168 0 0 0 32.39424 63.82592l-25.97376 81.408A50.82112 50.82112 0 0 0 144.384 936.96h730.112a50.82624 50.82624 0 0 0 48.44032-66.25792zM506.83392 146.78528c88.23808 0 160.0256 73.29792 160.0256 163.39968 0 100.92032-90.14272 213.75488-160.72704 269.28128-79.03232-57.52832-159.32928-162.4832-159.32928-269.28128 0-90.10176 71.79264-163.39968 160.03072-163.39968z m-287.26784 388.17792a4.31616 4.31616 0 0 1 4.12672-3.00544h142.336a518.94272 518.94272 0 0 0 117.05856 110.48448 42.81344 42.81344 0 0 0 48.256-0.8192 558.2848 558.2848 0 0 0 110.79168-109.65504h153.05216a4.3264 4.3264 0 0 1 4.13184 3.00544l62.34624 192.13824H157.21472z m-55.95136 337.13664l25.56928-80.13824h640.512l25.6 80.13824H163.61472z" fill="#5288F5" p-id="4604"></path><path d="M612.1728 297.80992h-71.10144V226.66752H476.24704v71.1424H405.15072v64.86016h71.09632v71.1424h64.82432V362.67008h71.10144V297.80992z" fill="#F79C42" p-id="4605"></path></svg>