<?xml version="1.0" encoding="utf-8"?>
<svg version="1.1" xmlns:xlink="http://www.w3.org/1999/xlink" width="24px" height="24px" xmlns="http://www.w3.org/2000/svg">
  <defs>
    <mask fill="white" id="clip257">
      <path d="M 9 18  C 3.96000000000004 18  0 14.04  0 9  C 0 6.12899485704315  1.28499682312543 3.60844339312052  3.32263368901897 1.97070238858953  C 4.86203318939488 0.733417312764686  6.83100514295677 0  9 0  C 14.04 0  18 3.96000000000004  18 9  C 18 14.04  14.04 18  9 18  Z " fill-rule="evenodd" />
    </mask>
    <filter x="752px" y="538px" width="24px" height="24px" filterUnits="userSpaceOnUse" id="filter258">
      <feOffset dx="0" dy="0" in="SourceAlpha" result="shadowOffsetInner" />
      <feGaussianBlur stdDeviation="1.5" in="shadowOffsetInner" result="shadowGaussian" />
      <feComposite in2="shadowGaussian" operator="atop" in="SourceAlpha" result="shadowComposite" />
      <feColorMatrix type="matrix" values="0 0 0 0 0.0823529411764706  0 0 0 0 0.83921568627451  0 0 0 0 0.729411764705882  0 0 0 0.349019607843137 0  " in="shadowComposite" />
    </filter>
    <g id="widget259">
      <path d="M 9 18  C 3.96000000000004 18  0 14.04  0 9  C 0 6.12899485704315  1.28499682312543 3.60844339312052  3.32263368901897 1.97070238858953  C 4.86203318939488 0.733417312764686  6.83100514295677 0  9 0  C 14.04 0  18 3.96000000000004  18 9  C 18 14.04  14.04 18  9 18  Z " fill-rule="nonzero" fill="#0099ff" stroke="none" transform="matrix(1 0 0 1 755 541 )" />
      <path d="M 9 18  C 3.96000000000004 18  0 14.04  0 9  C 0 6.12899485704315  1.28499682312543 3.60844339312052  3.32263368901897 1.97070238858953  C 4.86203318939488 0.733417312764686  6.83100514295677 0  9 0  C 14.04 0  18 3.96000000000004  18 9  C 18 14.04  14.04 18  9 18  Z " stroke-width="2" stroke="#0099ff" fill="none" transform="matrix(1 0 0 1 755 541 )" mask="url(#clip257)" />
    </g>
  </defs>
  <g transform="matrix(1 0 0 1 -752 -538 )">
    <use xlink:href="#widget259" filter="url(#filter258)" />
    <use xlink:href="#widget259" />
  </g>
</svg>