<?xml version="1.0" encoding="utf-8"?>
<svg version="1.1" xmlns:xlink="http://www.w3.org/1999/xlink" width="367px" height="343px" xmlns="http://www.w3.org/2000/svg">
  <g transform="matrix(1 0 0 1 -631 -3438 )">
    <path d="M 632 3442  A 3 3 0 0 1 635 3439 L 994 3439  A 3 3 0 0 1 997 3442 L 997 3777  A 3 3 0 0 1 994 3780 L 635 3780  A 3 3 0 0 1 632 3777 L 632 3442  Z " fill-rule="nonzero" fill="#ff3399" stroke="none" fill-opacity="0.0980392156862745" />
    <path d="M 631.5 3442  A 3.5 3.5 0 0 1 635 3438.5 L 994 3438.5  A 3.5 3.5 0 0 1 997.5 3442 L 997.5 3777  A 3.5 3.5 0 0 1 994 3780.5 L 635 3780.5  A 3.5 3.5 0 0 1 631.5 3777 L 631.5 3442  Z " stroke-width="1" stroke-dasharray="9,4" stroke="#ff3399" fill="none" stroke-dashoffset="0.5" />
  </g>
</svg>