<?xml version="1.0" encoding="utf-8"?>
<svg version="1.1" xmlns:xlink="http://www.w3.org/1999/xlink" width="292px" height="396px" xmlns="http://www.w3.org/2000/svg">
  <g transform="matrix(1 0 0 1 -599 -1530 )">
    <path d="M 600 1534  A 3 3 0 0 1 603 1531 L 887 1531  A 3 3 0 0 1 890 1534 L 890 1922  A 3 3 0 0 1 887 1925 L 603 1925  A 3 3 0 0 1 600 1922 L 600 1534  Z " fill-rule="nonzero" fill="#ff3399" stroke="none" fill-opacity="0.0980392156862745" />
    <path d="M 599.5 1534  A 3.5 3.5 0 0 1 603 1530.5 L 887 1530.5  A 3.5 3.5 0 0 1 890.5 1534 L 890.5 1922  A 3.5 3.5 0 0 1 887 1925.5 L 603 1925.5  A 3.5 3.5 0 0 1 599.5 1922 L 599.5 1534  Z " stroke-width="1" stroke-dasharray="9,4" stroke="#ff3399" fill="none" stroke-dashoffset="0.5" />
  </g>
</svg>