<svg class="icon" viewBox="0 0 1024 1024" version="1.1" xmlns="http://www.w3.org/2000/svg" p-id="3522" height="128" width="128"><path d="M685.978 354.304c11.264 0 22.425 0.82 33.484 2.048-30.105-139.776-180.019-243.61-351.027-243.61-191.283 0-347.955 130.048-347.955 295.117 0 95.335 52.122 173.568 139.264 234.189l-34.816 104.346 121.651-60.826c43.52 8.602 78.439 17.408 121.856 17.408 10.957 0 21.709-0.512 32.461-1.331-6.758-23.245-10.752-47.514-10.752-72.704 0-151.552 130.56-274.637 295.834-274.637z m-187.085-94.003c26.214 0 43.52 17.203 43.52 43.315 0 26.01-17.306 43.418-43.52 43.418-26.112 0-52.224-17.408-52.224-43.418 0-26.112 26.112-43.315 52.224-43.315z m-243.507 86.733c-26.112 0-52.43-17.408-52.43-43.418 0-26.112 26.318-43.315 52.43-43.315s43.417 17.203 43.417 43.315c0 25.907-17.305 43.418-43.417 43.418zM1003.52 624.742c0-138.752-139.162-251.801-295.526-251.801-165.581 0-295.936 113.05-295.936 251.801 0 138.957 130.355 251.802 295.936 251.802 34.61 0 69.632-8.704 104.345-17.408l95.437 52.122-26.112-86.733c69.837-52.224 121.856-121.549 121.856-199.783z m-391.475-43.417c-17.306 0-34.816-17.203-34.816-34.714 0-17.305 17.51-34.713 34.816-34.713 26.317 0 43.52 17.408 43.52 34.713 0 17.51-17.203 34.714-43.52 34.714z m191.385 0c-17.203 0-34.508-17.203-34.508-34.714 0-17.305 17.305-34.713 34.508-34.713 26.112 0 43.52 17.408 43.52 34.713 0 17.51-17.408 34.714-43.52 34.714z" p-id="3523"></path></svg>