<svg class="icon" viewBox="0 0 1024 1024" version="1.1" xmlns="http://www.w3.org/2000/svg" p-id="5864" height="128" width="128"><path d="M461.22 235.3l425.46 297.91c11.31 7.92 26.9 5.17 34.82-6.14 7.92-11.31 5.17-26.9-6.14-34.82L489.9 194.34c-11.31-7.92-26.9-5.17-34.82 6.14-7.92 11.31-5.17 26.9 6.14 34.82z" fill="#565656" p-id="5865"></path><path d="M458.15 826.83c7.92 11.31 23.51 14.06 34.82 6.14l425.46-297.91c11.31-7.92 14.06-23.51 6.14-34.82-7.92-11.31-23.51-14.06-34.82-6.14L464.29 792.02c-11.31 7.92-14.06 23.5-6.14 34.81zM104.15 234.88l425.46 297.91c11.31 7.92 26.9 5.17 34.82-6.14 7.92-11.31 5.17-26.9-6.14-34.82L132.83 193.92c-11.31-7.92-26.9-5.17-34.82 6.14-7.92 11.31-5.17 26.9 6.14 34.82z" fill="#565656" p-id="5866"></path><path d="M101.09 826.41c7.92 11.31 23.51 14.06 34.82 6.14l425.46-297.91c11.31-7.92 14.06-23.51 6.14-34.82-7.92-11.31-23.51-14.06-34.82-6.14L107.23 791.59c-11.31 7.92-14.06 23.51-6.14 34.82z" fill="#565656" p-id="5867"></path></svg>