<?xml version="1.0" encoding="utf-8"?>
<svg version="1.1" xmlns:xlink="http://www.w3.org/1999/xlink" width="399px" height="300px" xmlns="http://www.w3.org/2000/svg">
  <g transform="matrix(1 0 0 1 -599 -3910 )">
    <path d="M 600 3914  A 3 3 0 0 1 603 3911 L 994 3911  A 3 3 0 0 1 997 3914 L 997 4206  A 3 3 0 0 1 994 4209 L 603 4209  A 3 3 0 0 1 600 4206 L 600 3914  Z " fill-rule="nonzero" fill="#ff3399" stroke="none" fill-opacity="0.0980392156862745" />
    <path d="M 599.5 3914  A 3.5 3.5 0 0 1 603 3910.5 L 994 3910.5  A 3.5 3.5 0 0 1 997.5 3914 L 997.5 4206  A 3.5 3.5 0 0 1 994 4209.5 L 603 4209.5  A 3.5 3.5 0 0 1 599.5 4206 L 599.5 3914  Z " stroke-width="1" stroke-dasharray="9,4" stroke="#ff3399" fill="none" stroke-dashoffset="0.5" />
  </g>
</svg>