<?xml version="1.0" encoding="utf-8"?>
<svg version="1.1" xmlns:xlink="http://www.w3.org/1999/xlink" width="356px" height="300px" xmlns="http://www.w3.org/2000/svg">
  <g transform="matrix(1 0 0 1 -618 -3878 )">
    <path d="M 619 3882  A 3 3 0 0 1 622 3879 L 970 3879  A 3 3 0 0 1 973 3882 L 973 4174  A 3 3 0 0 1 970 4177 L 622 4177  A 3 3 0 0 1 619 4174 L 619 3882  Z " fill-rule="nonzero" fill="#ff3399" stroke="none" fill-opacity="0.0980392156862745" />
    <path d="M 618.5 3882  A 3.5 3.5 0 0 1 622 3878.5 L 970 3878.5  A 3.5 3.5 0 0 1 973.5 3882 L 973.5 4174  A 3.5 3.5 0 0 1 970 4177.5 L 622 4177.5  A 3.5 3.5 0 0 1 618.5 4174 L 618.5 3882  Z " stroke-width="1" stroke-dasharray="9,4" stroke="#ff3399" fill="none" stroke-dashoffset="0.5" />
  </g>
</svg>