<svg t="1597397013522" class="icon" viewBox="0 0 1032 1024" version="1.1" xmlns="http://www.w3.org/2000/svg" p-id="6463" width="200" height="200"><path d="M65.024 911.104V89.984c0-4.736 4.224-8.96 8.96-8.96h747.648c4.736 0 8.96 4.224 8.96 8.96V396.8h65.024V89.984c0-40.32-33.024-73.344-73.984-73.344H73.984C33.024 16.64 0 49.664 0 89.984v820.992c0 40.32 33.024 73.344 73.984 73.344h418.432v-64.512H73.984c-5.248 0.128-8.96-3.456-8.96-8.704z" p-id="6464" fill="#8a8a8a"></path><path d="M167.296 580.224c-17.792 0-32.512 14.208-32.512 32s14.72 32 32.512 32h129.536c17.792 0 32.512-14.208 32.512-32s-14.72-32-32.512-32H167.296zM480.768 438.144c0-17.792-14.72-32-32.512-32H167.296c-17.792 0-32.512 14.208-32.512 32s14.72 32 32.512 32h281.6c17.152 0 31.872-14.208 31.872-32zM542.08 270.336c0-17.792-14.72-32-32.512-32H167.296c-17.792 0-32.512 14.208-32.512 32s14.72 32 32.512 32h342.4c17.792 0.512 32.384-14.08 32.384-32zM1026.048 682.496L1024 672h-0.512c-5.76-14.72-16.768-24.064-29.824-24.064h-2.56c-31.488 0-57.088-27.264-57.088-60.8 0-6.272 1.536-14.72 5.248-23.04v-0.512c2.048-5.248 3.2-11.008 3.2-16.768 0-13.568-6.272-26.24-16.768-34.56h-1.024l-0.512-0.512h-1.024L857.6 473.472l-0.512-0.512h-0.512c-5.248-2.048-11.008-3.712-16.768-3.712-12.032 0-23.552 4.736-32 13.568-8.448 8.96-30.464 27.776-45.056 27.776-13.568 0-35.072-16.768-45.568-28.288-8.448-8.96-19.968-14.208-32.512-14.208h-0.512c-5.76 0-11.008 1.024-16.256 3.2l-1.024 0.512-1.024 0.512-68.096 39.808-1.024 1.024c-10.496 8.448-16.768 20.992-16.768 34.56 0 5.76 1.024 11.52 3.712 17.28 2.56 7.296 4.736 15.232 5.248 23.04 0 33.536-25.728 60.8-57.088 60.8h-2.688c-16.256 0-28.8 13.696-32.512 34.048v0.512c-1.536 9.984-5.248 34.56-5.248 55.552 0 20.48 3.712 45.056 5.248 55.04v0.512c3.712 20.992 16.768 34.048 32.512 34.048h2.688c31.488 0 57.088 27.264 57.088 60.8 0 6.272-1.536 14.72-5.248 23.04v0.512c-2.048 5.248-3.2 11.008-3.2 16.768 0 13.568 6.272 26.24 16.768 34.56h1.024l0.512 0.512h1.024l64 37.76 1.024 0.512 1.024 0.512h0.512c5.248 2.048 11.008 3.712 16.768 3.712 12.032 0 24.064-5.248 32-14.208 8.96-10.496 32-29.312 46.08-29.312 14.208 0 36.224 17.792 46.72 29.824 7.808 9.472 20.48 14.72 32.512 14.72 5.76 0 11.52-1.024 16.768-3.712l0.512-0.512h1.024l66.56-39.296 0.512-0.512 0.512-0.512c10.496-8.448 16.768-20.992 16.768-34.56 0-5.76-1.024-11.52-3.712-17.28-3.2-7.808-4.736-16.768-5.248-25.728 0-31.488 26.24-58.24 57.088-58.24h2.56c16.256 0 28.8-13.696 32.512-34.048 0 0 5.76-30.976 5.76-55.552-0.256-24.832-6.016-55.808-6.016-55.808z m-82.816 86.528c-45.568 6.784-80.768 48.768-80.768 98.56 0 11.008 2.56 22.016 4.736 29.312l-38.784 22.528c-13.056-13.696-28.288-24.704-45.568-32.512-2.048-1.024-4.224-2.048-6.784-3.2-1.536-0.512-3.712-1.536-5.248-2.048l-1.024 2.56c-3.2-0.512-6.784-0.512-9.984-0.512-16.768 0-34.048 7.296-52.48 21.504-5.76 4.224-11.008 8.96-15.744 14.208l-36.736-22.016c2.048-7.296 4.736-18.304 4.736-29.312 0-49.792-34.56-91.264-80.768-98.56-1.024-7.808-2.56-20.48-2.56-30.464 0-9.984 1.536-22.528 2.56-30.464 45.568-6.784 80.768-48.768 80.768-98.56 0-11.008-2.56-22.016-4.736-29.312l39.808-23.04c3.712 3.712 9.472 8.96 15.744 13.568 17.792 13.696 35.072 20.48 51.328 20.48 16.256 0 33.536-6.784 50.816-19.968 5.248-4.224 10.496-8.448 15.744-13.568l38.272 22.528c-2.048 7.296-4.736 18.304-4.736 29.312 0 49.792 34.56 91.264 80.768 98.56 1.024 8.448 2.56 20.992 2.56 30.464 0.64 9.472-0.896 22.016-1.92 29.952z" p-id="6465" fill="#8a8a8a"></path></svg>