<?xml version="1.0" encoding="utf-8"?>
<svg version="1.1" xmlns:xlink="http://www.w3.org/1999/xlink" width="30px" height="33px" xmlns="http://www.w3.org/2000/svg">
  <g transform="matrix(1 0 0 1 -21 -9 )">
    <path d="M 7.97940340909091 23.7463727678571  C 8.11434659090909 23.8630022321429  8.18181818181818 24.0011160714286  8.18181818181818 24.1607142857143  L 8.18181818181818 25.3392857142857  C 8.18181818181818 25.4988839285714  8.11434659090909 25.6369977678571  7.97940340909091 25.7536272321429  C 7.84446022727273 25.8702566964286  7.68465909090909 25.9285714285714  7.5 25.9285714285714  L 6.13636363636364 25.9285714285714  C 5.95170454545455 25.9285714285714  5.79190340909091 25.8702566964286  5.65696022727273 25.7536272321429  C 5.52201704545455 25.6369977678571  5.45454545454546 25.4988839285714  5.45454545454546 25.3392857142857  L 5.45454545454546 24.1607142857143  C 5.45454545454546 24.0011160714286  5.52201704545455 23.8630022321429  5.65696022727273 23.7463727678571  C 5.79190340909091 23.6297433035714  5.95170454545455 23.5714285714286  6.13636363636364 23.5714285714286  L 7.5 23.5714285714286  C 7.68465909090909 23.5714285714286  7.84446022727273 23.6297433035714  7.97940340909091 23.7463727678571  Z M 7.97940340909091 19.0320870535714  C 8.11434659090909 19.1487165178571  8.18181818181818 19.2868303571429  8.18181818181818 19.4464285714286  L 8.18181818181818 20.625  C 8.18181818181818 20.7845982142857  8.11434659090909 20.9227120535714  7.97940340909091 21.0393415178571  C 7.84446022727273 21.1559709821429  7.68465909090909 21.2142857142857  7.5 21.2142857142857  L 6.13636363636364 21.2142857142857  C 5.95170454545455 21.2142857142857  5.79190340909091 21.1559709821429  5.65696022727273 21.0393415178571  C 5.52201704545455 20.9227120535714  5.45454545454546 20.7845982142857  5.45454545454546 20.625  L 5.45454545454546 19.4464285714286  C 5.45454545454546 19.2868303571429  5.52201704545455 19.1487165178571  5.65696022727273 19.0320870535714  C 5.79190340909091 18.9154575892857  5.95170454545455 18.8571428571429  6.13636363636364 18.8571428571429  L 7.5 18.8571428571429  C 7.68465909090909 18.8571428571429  7.84446022727273 18.9154575892857  7.97940340909091 19.0320870535714  Z M 13.4339488636364 19.0320870535714  C 13.5688920454545 19.1487165178571  13.6363636363636 19.2868303571429  13.6363636363636 19.4464285714286  L 13.6363636363636 20.625  C 13.6363636363636 20.7845982142857  13.5688920454545 20.9227120535714  13.4339488636364 21.0393415178571  C 13.2990056818182 21.1559709821429  13.1392045454545 21.2142857142857  12.9545454545455 21.2142857142857  L 11.5909090909091 21.2142857142857  C 11.40625 21.2142857142857  11.2464488636364 21.1559709821429  11.1115056818182 21.0393415178571  C 10.9765625 20.9227120535714  10.9090909090909 20.7845982142857  10.9090909090909 20.625  L 10.9090909090909 19.4464285714286  C 10.9090909090909 19.2868303571429  10.9765625 19.1487165178571  11.1115056818182 19.0320870535714  C 11.2464488636364 18.9154575892857  11.40625 18.8571428571429  11.5909090909091 18.8571428571429  L 12.9545454545455 18.8571428571429  C 13.1392045454545 18.8571428571429  13.2990056818182 18.9154575892857  13.4339488636364 19.0320870535714  Z M 7.97940340909091 14.3178013392857  C 8.11434659090909 14.4344308035714  8.18181818181818 14.5725446428571  8.18181818181818 14.7321428571429  L 8.18181818181818 15.9107142857143  C 8.18181818181818 16.0703125  8.11434659090909 16.2084263392857  7.97940340909091 16.3250558035714  C 7.84446022727273 16.4416852678571  7.68465909090909 16.5  7.5 16.5  L 6.13636363636364 16.5  C 5.95170454545455 16.5  5.79190340909091 16.4416852678571  5.65696022727273 16.3250558035714  C 5.52201704545455 16.2084263392857  5.45454545454546 16.0703125  5.45454545454546 15.9107142857143  L 5.45454545454546 14.7321428571429  C 5.45454545454546 14.5725446428571  5.52201704545455 14.4344308035714  5.65696022727273 14.3178013392857  C 5.79190340909091 14.201171875  5.95170454545455 14.1428571428571  6.13636363636364 14.1428571428571  L 7.5 14.1428571428571  C 7.68465909090909 14.1428571428571  7.84446022727273 14.201171875  7.97940340909091 14.3178013392857  Z M 24.3430397727273 23.7463727678571  C 24.4779829545455 23.8630022321429  24.5454545454545 24.0011160714286  24.5454545454545 24.1607142857143  L 24.5454545454545 25.3392857142857  C 24.5454545454545 25.4988839285714  24.4779829545455 25.6369977678571  24.3430397727273 25.7536272321429  C 24.2080965909091 25.8702566964286  24.0482954545455 25.9285714285714  23.8636363636364 25.9285714285714  L 22.5 25.9285714285714  C 22.3153409090909 25.9285714285714  22.1555397727273 25.8702566964286  22.0205965909091 25.7536272321429  C 21.8856534090909 25.6369977678571  21.8181818181818 25.4988839285714  21.8181818181818 25.3392857142857  L 21.8181818181818 24.1607142857143  C 21.8181818181818 24.0011160714286  21.8856534090909 23.8630022321429  22.0205965909091 23.7463727678571  C 22.1555397727273 23.6297433035714  22.3153409090909 23.5714285714286  22.5 23.5714285714286  L 23.8636363636364 23.5714285714286  C 24.0482954545455 23.5714285714286  24.2080965909091 23.6297433035714  24.3430397727273 23.7463727678571  Z M 18.8884943181818 19.0320870535714  C 19.0234375 19.1487165178571  19.0909090909091 19.2868303571429  19.0909090909091 19.4464285714286  L 19.0909090909091 20.625  C 19.0909090909091 20.7845982142857  19.0234375 20.9227120535714  18.8884943181818 21.0393415178571  C 18.7535511363636 21.1559709821429  18.59375 21.2142857142857  18.4090909090909 21.2142857142857  L 17.0454545454545 21.2142857142857  C 16.8607954545455 21.2142857142857  16.7009943181818 21.1559709821429  16.5660511363636 21.0393415178571  C 16.4311079545455 20.9227120535714  16.3636363636364 20.7845982142857  16.3636363636364 20.625  L 16.3636363636364 19.4464285714286  C 16.3636363636364 19.2868303571429  16.4311079545455 19.1487165178571  16.5660511363636 19.0320870535714  C 16.7009943181818 18.9154575892857  16.8607954545455 18.8571428571429  17.0454545454545 18.8571428571429  L 18.4090909090909 18.8571428571429  C 18.59375 18.8571428571429  18.7535511363636 18.9154575892857  18.8884943181818 19.0320870535714  Z M 13.4339488636364 14.3178013392857  C 13.5688920454545 14.4344308035714  13.6363636363636 14.5725446428571  13.6363636363636 14.7321428571429  L 13.6363636363636 15.9107142857143  C 13.6363636363636 16.0703125  13.5688920454545 16.2084263392857  13.4339488636364 16.3250558035714  C 13.2990056818182 16.4416852678571  13.1392045454545 16.5  12.9545454545455 16.5  L 11.5909090909091 16.5  C 11.40625 16.5  11.2464488636364 16.4416852678571  11.1115056818182 16.3250558035714  C 10.9765625 16.2084263392857  10.9090909090909 16.0703125  10.9090909090909 15.9107142857143  L 10.9090909090909 14.7321428571429  C 10.9090909090909 14.5725446428571  10.9765625 14.4344308035714  11.1115056818182 14.3178013392857  C 11.2464488636364 14.201171875  11.40625 14.1428571428571  11.5909090909091 14.1428571428571  L 12.9545454545455 14.1428571428571  C 13.1392045454545 14.1428571428571  13.2990056818182 14.201171875  13.4339488636364 14.3178013392857  Z M 7.97940340909091 9.603515625  C 8.11434659090909 9.72014508928571  8.18181818181818 9.85825892857143  8.18181818181818 10.0178571428571  L 8.18181818181818 11.1964285714286  C 8.18181818181818 11.3560267857143  8.11434659090909 11.494140625  7.97940340909091 11.6107700892857  C 7.84446022727273 11.7273995535714  7.68465909090909 11.7857142857143  7.5 11.7857142857143  L 6.13636363636364 11.7857142857143  C 5.95170454545455 11.7857142857143  5.79190340909091 11.7273995535714  5.65696022727273 11.6107700892857  C 5.52201704545455 11.494140625  5.45454545454546 11.3560267857143  5.45454545454546 11.1964285714286  L 5.45454545454546 10.0178571428571  C 5.45454545454546 9.85825892857143  5.52201704545455 9.72014508928571  5.65696022727273 9.603515625  C 5.79190340909091 9.48688616071428  5.95170454545455 9.42857142857143  6.13636363636364 9.42857142857143  L 7.5 9.42857142857143  C 7.68465909090909 9.42857142857143  7.84446022727273 9.48688616071428  7.97940340909091 9.603515625  Z M 24.3430397727273 19.0320870535714  C 24.4779829545455 19.1487165178571  24.5454545454545 19.2868303571429  24.5454545454545 19.4464285714286  L 24.5454545454545 20.625  C 24.5454545454545 20.7845982142857  24.4779829545455 20.9227120535714  24.3430397727273 21.0393415178571  C 24.2080965909091 21.1559709821429  24.0482954545455 21.2142857142857  23.8636363636364 21.2142857142857  L 22.5 21.2142857142857  C 22.3153409090909 21.2142857142857  22.1555397727273 21.1559709821429  22.0205965909091 21.0393415178571  C 21.8856534090909 20.9227120535714  21.8181818181818 20.7845982142857  21.8181818181818 20.625  L 21.8181818181818 19.4464285714286  C 21.8181818181818 19.2868303571429  21.8856534090909 19.1487165178571  22.0205965909091 19.0320870535714  C 22.1555397727273 18.9154575892857  22.3153409090909 18.8571428571429  22.5 18.8571428571429  L 23.8636363636364 18.8571428571429  C 24.0482954545455 18.8571428571429  24.2080965909091 18.9154575892857  24.3430397727273 19.0320870535714  Z M 18.8884943181818 14.3178013392857  C 19.0234375 14.4344308035714  19.0909090909091 14.5725446428571  19.0909090909091 14.7321428571429  L 19.0909090909091 15.9107142857143  C 19.0909090909091 16.0703125  19.0234375 16.2084263392857  18.8884943181818 16.3250558035714  C 18.7535511363636 16.4416852678571  18.59375 16.5  18.4090909090909 16.5  L 17.0454545454545 16.5  C 16.8607954545455 16.5  16.7009943181818 16.4416852678571  16.5660511363636 16.3250558035714  C 16.4311079545455 16.2084263392857  16.3636363636364 16.0703125  16.3636363636364 15.9107142857143  L 16.3636363636364 14.7321428571429  C 16.3636363636364 14.5725446428571  16.4311079545455 14.4344308035714  16.5660511363636 14.3178013392857  C 16.7009943181818 14.201171875  16.8607954545455 14.1428571428571  17.0454545454545 14.1428571428571  L 18.4090909090909 14.1428571428571  C 18.59375 14.1428571428571  18.7535511363636 14.201171875  18.8884943181818 14.3178013392857  Z M 13.4339488636364 9.603515625  C 13.5688920454545 9.72014508928571  13.6363636363636 9.85825892857143  13.6363636363636 10.0178571428571  L 13.6363636363636 11.1964285714286  C 13.6363636363636 11.3560267857143  13.5688920454545 11.494140625  13.4339488636364 11.6107700892857  C 13.2990056818182 11.7273995535714  13.1392045454545 11.7857142857143  12.9545454545455 11.7857142857143  L 11.5909090909091 11.7857142857143  C 11.40625 11.7857142857143  11.2464488636364 11.7273995535714  11.1115056818182 11.6107700892857  C 10.9765625 11.494140625  10.9090909090909 11.3560267857143  10.9090909090909 11.1964285714286  L 10.9090909090909 10.0178571428571  C 10.9090909090909 9.85825892857143  10.9765625 9.72014508928571  11.1115056818182 9.603515625  C 11.2464488636364 9.48688616071428  11.40625 9.42857142857143  11.5909090909091 9.42857142857143  L 12.9545454545455 9.42857142857143  C 13.1392045454545 9.42857142857143  13.2990056818182 9.48688616071428  13.4339488636364 9.603515625  Z M 7.97940340909091 4.88922991071428  C 8.11434659090909 5.005859375  8.18181818181818 5.14397321428571  8.18181818181818 5.30357142857143  L 8.18181818181818 6.48214285714286  C 8.18181818181818 6.64174107142857  8.11434659090909 6.77985491071428  7.97940340909091 6.896484375  C 7.84446022727273 7.01311383928571  7.68465909090909 7.07142857142857  7.5 7.07142857142857  L 6.13636363636364 7.07142857142857  C 5.95170454545455 7.07142857142857  5.79190340909091 7.01311383928571  5.65696022727273 6.896484375  C 5.52201704545455 6.77985491071428  5.45454545454546 6.64174107142857  5.45454545454546 6.48214285714286  L 5.45454545454546 5.30357142857143  C 5.45454545454546 5.14397321428571  5.52201704545455 5.005859375  5.65696022727273 4.88922991071428  C 5.79190340909091 4.77260044642857  5.95170454545455 4.71428571428572  6.13636363636364 4.71428571428572  L 7.5 4.71428571428572  C 7.68465909090909 4.71428571428572  7.84446022727273 4.77260044642857  7.97940340909091 4.88922991071428  Z M 24.3430397727273 14.3178013392857  C 24.4779829545455 14.4344308035714  24.5454545454545 14.5725446428571  24.5454545454545 14.7321428571429  L 24.5454545454545 15.9107142857143  C 24.5454545454545 16.0703125  24.4779829545455 16.2084263392857  24.3430397727273 16.3250558035714  C 24.2080965909091 16.4416852678571  24.0482954545455 16.5  23.8636363636364 16.5  L 22.5 16.5  C 22.3153409090909 16.5  22.1555397727273 16.4416852678571  22.0205965909091 16.3250558035714  C 21.8856534090909 16.2084263392857  21.8181818181818 16.0703125  21.8181818181818 15.9107142857143  L 21.8181818181818 14.7321428571429  C 21.8181818181818 14.5725446428571  21.8856534090909 14.4344308035714  22.0205965909091 14.3178013392857  C 22.1555397727273 14.201171875  22.3153409090909 14.1428571428571  22.5 14.1428571428571  L 23.8636363636364 14.1428571428571  C 24.0482954545455 14.1428571428571  24.2080965909091 14.201171875  24.3430397727273 14.3178013392857  Z M 18.8884943181818 9.603515625  C 19.0234375 9.72014508928571  19.0909090909091 9.85825892857143  19.0909090909091 10.0178571428571  L 19.0909090909091 11.1964285714286  C 19.0909090909091 11.3560267857143  19.0234375 11.494140625  18.8884943181818 11.6107700892857  C 18.7535511363636 11.7273995535714  18.59375 11.7857142857143  18.4090909090909 11.7857142857143  L 17.0454545454545 11.7857142857143  C 16.8607954545455 11.7857142857143  16.7009943181818 11.7273995535714  16.5660511363636 11.6107700892857  C 16.4311079545455 11.494140625  16.3636363636364 11.3560267857143  16.3636363636364 11.1964285714286  L 16.3636363636364 10.0178571428571  C 16.3636363636364 9.85825892857143  16.4311079545455 9.72014508928571  16.5660511363636 9.603515625  C 16.7009943181818 9.48688616071428  16.8607954545455 9.42857142857143  17.0454545454545 9.42857142857143  L 18.4090909090909 9.42857142857143  C 18.59375 9.42857142857143  18.7535511363636 9.48688616071428  18.8884943181818 9.603515625  Z M 13.4339488636364 4.88922991071428  C 13.5688920454545 5.005859375  13.6363636363636 5.14397321428571  13.6363636363636 5.30357142857143  L 13.6363636363636 6.48214285714286  C 13.6363636363636 6.64174107142857  13.5688920454545 6.77985491071428  13.4339488636364 6.896484375  C 13.2990056818182 7.01311383928571  13.1392045454545 7.07142857142857  12.9545454545455 7.07142857142857  L 11.5909090909091 7.07142857142857  C 11.40625 7.07142857142857  11.2464488636364 7.01311383928571  11.1115056818182 6.896484375  C 10.9765625 6.77985491071428  10.9090909090909 6.64174107142857  10.9090909090909 6.48214285714286  L 10.9090909090909 5.30357142857143  C 10.9090909090909 5.14397321428571  10.9765625 5.005859375  11.1115056818182 4.88922991071428  C 11.2464488636364 4.77260044642857  11.40625 4.71428571428572  11.5909090909091 4.71428571428572  L 12.9545454545455 4.71428571428572  C 13.1392045454545 4.71428571428572  13.2990056818182 4.77260044642857  13.4339488636364 4.88922991071428  Z M 24.3430397727273 9.603515625  C 24.4779829545455 9.72014508928571  24.5454545454545 9.85825892857143  24.5454545454545 10.0178571428571  L 24.5454545454545 11.1964285714286  C 24.5454545454545 11.3560267857143  24.4779829545455 11.494140625  24.3430397727273 11.6107700892857  C 24.2080965909091 11.7273995535714  24.0482954545455 11.7857142857143  23.8636363636364 11.7857142857143  L 22.5 11.7857142857143  C 22.3153409090909 11.7857142857143  22.1555397727273 11.7273995535714  22.0205965909091 11.6107700892857  C 21.8856534090909 11.494140625  21.8181818181818 11.3560267857143  21.8181818181818 11.1964285714286  L 21.8181818181818 10.0178571428571  C 21.8181818181818 9.85825892857143  21.8856534090909 9.72014508928571  22.0205965909091 9.603515625  C 22.1555397727273 9.48688616071428  22.3153409090909 9.42857142857143  22.5 9.42857142857143  L 23.8636363636364 9.42857142857143  C 24.0482954545455 9.42857142857143  24.2080965909091 9.48688616071428  24.3430397727273 9.603515625  Z M 18.8884943181818 4.88922991071428  C 19.0234375 5.005859375  19.0909090909091 5.14397321428571  19.0909090909091 5.30357142857143  L 19.0909090909091 6.48214285714286  C 19.0909090909091 6.64174107142857  19.0234375 6.77985491071428  18.8884943181818 6.896484375  C 18.7535511363636 7.01311383928571  18.59375 7.07142857142857  18.4090909090909 7.07142857142857  L 17.0454545454545 7.07142857142857  C 16.8607954545455 7.07142857142857  16.7009943181818 7.01311383928571  16.5660511363636 6.896484375  C 16.4311079545455 6.77985491071428  16.3636363636364 6.64174107142857  16.3636363636364 6.48214285714286  L 16.3636363636364 5.30357142857143  C 16.3636363636364 5.14397321428571  16.4311079545455 5.005859375  16.5660511363636 4.88922991071428  C 16.7009943181818 4.77260044642857  16.8607954545455 4.71428571428572  17.0454545454545 4.71428571428572  L 18.4090909090909 4.71428571428572  C 18.59375 4.71428571428572  18.7535511363636 4.77260044642857  18.8884943181818 4.88922991071428  Z M 24.3430397727273 4.88922991071428  C 24.4779829545455 5.005859375  24.5454545454545 5.14397321428571  24.5454545454545 5.30357142857143  L 24.5454545454545 6.48214285714286  C 24.5454545454545 6.64174107142857  24.4779829545455 6.77985491071428  24.3430397727273 6.896484375  C 24.2080965909091 7.01311383928571  24.0482954545455 7.07142857142857  23.8636363636364 7.07142857142857  L 22.5 7.07142857142857  C 22.3153409090909 7.07142857142857  22.1555397727273 7.01311383928571  22.0205965909091 6.896484375  C 21.8856534090909 6.77985491071428  21.8181818181818 6.64174107142857  21.8181818181818 6.48214285714286  L 21.8181818181818 5.30357142857143  C 21.8181818181818 5.14397321428571  21.8856534090909 5.005859375  22.0205965909091 4.88922991071428  C 22.1555397727273 4.77260044642857  22.3153409090909 4.71428571428572  22.5 4.71428571428572  L 23.8636363636364 4.71428571428572  C 24.0482954545455 4.71428571428572  24.2080965909091 4.77260044642857  24.3430397727273 4.88922991071428  Z M 19.0909090909091 26.5178571428571  L 19.0909090909091 30.6428571428571  L 27 30.6428571428571  L 27 3  L 3 3  L 3 30.6428571428571  L 10.9090909090909 30.6428571428571  L 10.9090909090909 26.5178571428571  C 10.9090909090909 26.3582589285714  10.9765625 26.2201450892857  11.1115056818182 26.103515625  C 11.2464488636364 25.9868861607143  11.40625 25.9285714285714  11.5909090909091 25.9285714285714  L 18.4090909090909 25.9285714285714  C 18.59375 25.9285714285714  18.7535511363636 25.9868861607143  18.8884943181818 26.103515625  C 19.0234375 26.2201450892857  19.0909090909091 26.3582589285714  19.0909090909091 26.5178571428571  Z M 29.5951704545455 0.349888392857144  C 29.8650568181818 0.583147321428567  30 0.859374999999999  30 1.17857142857143  L 30 31.8214285714286  C 30 32.140625  29.8650568181818 32.4168526785714  29.5951704545455 32.6501116071429  C 29.3252840909091 32.8833705357143  29.0056818181818 33  28.6363636363636 33  L 1.36363636363636 33  C 0.994318181818182 33  0.674715909090909 32.8833705357143  0.404829545454545 32.6501116071429  C 0.134943181818182 32.4168526785714  0 32.140625  0 31.8214285714286  L 0 1.17857142857143  C 0 0.859374999999999  0.134943181818182 0.583147321428567  0.404829545454545 0.349888392857144  C 0.674715909090909 0.116629464285717  0.994318181818182 0  1.36363636363636 0  L 28.6363636363636 0  C 29.0056818181818 0  29.3252840909091 0.116629464285717  29.5951704545455 0.349888392857144  Z " fill-rule="nonzero" fill="#ffffff" stroke="none" transform="matrix(1 0 0 1 21 9 )" />
  </g>
</svg>