<?xml version="1.0" encoding="utf-8"?>
<svg version="1.1" xmlns:xlink="http://www.w3.org/1999/xlink" width="15px" height="17px" xmlns="http://www.w3.org/2000/svg">
  <g transform="matrix(1 0 0 1 -139 -16 )">
    <path d="M 8.603515625 16.050390625  C 8.90950520833333 15.8423177083333  9.0625 15.5921875  9.0625 15.3  C 9.0625 15.0078125  8.90950520833333 14.7576822916667  8.603515625 14.549609375  C 8.29752604166667 14.3415364583333  7.9296875 14.2375  7.5 14.2375  C 7.0703125 14.2375  6.70247395833333 14.3415364583333  6.396484375 14.549609375  C 6.09049479166667 14.7576822916667  5.9375 15.0078125  5.9375 15.3  C 5.9375 15.5921875  6.09049479166667 15.8423177083333  6.396484375 16.050390625  C 6.70247395833333 16.2584635416667  7.0703125 16.3625  7.5 16.3625  C 7.9296875 16.3625  8.29752604166667 16.2584635416667  8.603515625 16.050390625  Z M 12.939453125 13.473828125  C 13.0631510416667 13.3897135416667  13.125 13.2901041666667  13.125 13.175  L 13.125 3.825  C 13.125 3.70989583333333  13.0631510416667 3.61028645833333  12.939453125 3.526171875  C 12.8157552083333 3.44205729166667  12.6692708333333 3.4  12.5 3.4  L 2.5 3.4  C 2.33072916666667 3.4  2.18424479166667 3.44205729166667  2.060546875 3.526171875  C 1.93684895833333 3.61028645833333  1.875 3.70989583333333  1.875 3.825  L 1.875 13.175  C 1.875 13.2901041666667  1.93684895833333 13.3897135416667  2.060546875 13.473828125  C 2.18424479166667 13.5579427083333  2.33072916666667 13.6  2.5 13.6  L 12.5 13.6  C 12.6692708333333 13.6  12.8157552083333 13.5579427083333  12.939453125 13.473828125  Z M 9.0625 2.125  C 9.27083333333334 2.125  9.375 2.05416666666666  9.375 1.9125  C 9.375 1.77083333333333  9.27083333333334 1.7  9.0625 1.7  L 5.9375 1.7  C 5.72916666666667 1.7  5.625 1.77083333333333  5.625 1.9125  C 5.625 2.05416666666666  5.72916666666667 2.125  5.9375 2.125  L 9.0625 2.125  Z M 14.2578125 0.5046875  C 14.7526041666667 0.841145833333333  15 1.23958333333333  15 1.7  L 15 15.3  C 15 15.7604166666667  14.7526041666667 16.1588541666667  14.2578125 16.4953125  C 13.7630208333333 16.8317708333333  13.1770833333333 17  12.5 17  L 2.5 17  C 1.82291666666667 17  1.23697916666667 16.8317708333333  0.7421875 16.4953125  C 0.247395833333333 16.1588541666667  0 15.7604166666667  0 15.3  L 0 1.7  C 0 1.23958333333333  0.247395833333333 0.841145833333333  0.7421875 0.5046875  C 1.23697916666667 0.168229166666665  1.82291666666667 0  2.5 0  L 12.5 0  C 13.1770833333333 0  13.7630208333333 0.168229166666665  14.2578125 0.5046875  Z " fill-rule="nonzero" fill="#ffffff" stroke="none" transform="matrix(1 0 0 1 139 16 )" />
  </g>
</svg>