<svg t="1603695207925" class="icon" viewBox="0 0 1024 1024" version="1.1" xmlns="http://www.w3.org/2000/svg" p-id="1938" width="48" height="48"><path d="M526.35 77.93c-245.38 0-445 199.63-445 445s199.62 445 445 445 445-199.62 445-445-199.63-445-445-445z m202.37 556.25c0 88.73-72.19 160.91-160.91 160.91a23.42 23.42 0 1 1 0-46.84 114.2 114.2 0 0 0 114.07-114.07v-60.81A114.2 114.2 0 0 0 567.81 459.3H388.29l110.88 81.84a23.42 23.42 0 1 1-27.81 37.69L308.53 458.68a23.44 23.44 0 0 1 0-37.7l162.83-120.14a23.42 23.42 0 1 1 27.81 37.69L399 412.46h168.81c88.72 0 160.91 72.19 160.91 160.91z" p-id="1939" fill="#515151"></path></svg>