<?xml version="1.0" encoding="utf-8"?>
<svg version="1.1" xmlns:xlink="http://www.w3.org/1999/xlink" width="309px" height="396px" xmlns="http://www.w3.org/2000/svg">
  <g transform="matrix(1 0 0 1 -600 -339 )">
    <path d="M 601 343  A 3 3 0 0 1 604 340 L 905 340  A 3 3 0 0 1 908 343 L 908 731  A 3 3 0 0 1 905 734 L 604 734  A 3 3 0 0 1 601 731 L 601 343  Z " fill-rule="nonzero" fill="#ff3399" stroke="none" fill-opacity="0.0980392156862745" />
    <path d="M 600.5 343  A 3.5 3.5 0 0 1 604 339.5 L 905 339.5  A 3.5 3.5 0 0 1 908.5 343 L 908.5 731  A 3.5 3.5 0 0 1 905 734.5 L 604 734.5  A 3.5 3.5 0 0 1 600.5 731 L 600.5 343  Z " stroke-width="1" stroke-dasharray="9,4" stroke="#ff3399" fill="none" stroke-dashoffset="0.5" />
  </g>
</svg>