<?xml version="1.0" encoding="utf-8"?>
<svg version="1.1" xmlns:xlink="http://www.w3.org/1999/xlink" width="287px" height="396px" xmlns="http://www.w3.org/2000/svg">
  <g transform="matrix(1 0 0 1 -607 -365 )">
    <path d="M 608 369  A 3 3 0 0 1 611 366 L 890 366  A 3 3 0 0 1 893 369 L 893 757  A 3 3 0 0 1 890 760 L 611 760  A 3 3 0 0 1 608 757 L 608 369  Z " fill-rule="nonzero" fill="#ff3399" stroke="none" fill-opacity="0.0980392156862745" />
    <path d="M 607.5 369  A 3.5 3.5 0 0 1 611 365.5 L 890 365.5  A 3.5 3.5 0 0 1 893.5 369 L 893.5 757  A 3.5 3.5 0 0 1 890 760.5 L 611 760.5  A 3.5 3.5 0 0 1 607.5 757 L 607.5 369  Z " stroke-width="1" stroke-dasharray="9,4" stroke="#ff3399" fill="none" stroke-dashoffset="0.5" />
  </g>
</svg>