<?xml version="1.0" encoding="utf-8"?>
<svg version="1.1" xmlns:xlink="http://www.w3.org/1999/xlink" width="287px" height="396px" xmlns="http://www.w3.org/2000/svg">
  <g transform="matrix(1 0 0 1 -600 -365 )">
    <path d="M 601 369  A 3 3 0 0 1 604 366 L 883 366  A 3 3 0 0 1 886 369 L 886 757  A 3 3 0 0 1 883 760 L 604 760  A 3 3 0 0 1 601 757 L 601 369  Z " fill-rule="nonzero" fill="#ff3399" stroke="none" fill-opacity="0.0980392156862745" />
    <path d="M 600.5 369  A 3.5 3.5 0 0 1 604 365.5 L 883 365.5  A 3.5 3.5 0 0 1 886.5 369 L 886.5 757  A 3.5 3.5 0 0 1 883 760.5 L 604 760.5  A 3.5 3.5 0 0 1 600.5 757 L 600.5 369  Z " stroke-width="1" stroke-dasharray="9,4" stroke="#ff3399" fill="none" stroke-dashoffset="0.5" />
  </g>
</svg>